<?xml version="1.0" encoding="UTF-8"?>
<!DOCTYPE svg PUBLIC "-//W3C//DTD SVG 1.1//EN" "http://www.w3.org/Graphics/SVG/1.1/DTD/svg11.dtd">
<svg xmlns="http://www.w3.org/2000/svg" version="1.1" width="194px" height="194px" style="shape-rendering:geometricPrecision; text-rendering:geometricPrecision; image-rendering:optimizeQuality; fill-rule:evenodd; clip-rule:evenodd" xmlns:xlink="http://www.w3.org/1999/xlink">
<g><path style="opacity:0.841" fill="#5fc5f7" d="M 94.5,-0.5 C 95.8333,-0.5 97.1667,-0.5 98.5,-0.5C 98.8333,3.5 99.1667,3.5 99.5,-0.5C 99.8333,-0.5 100.167,-0.5 100.5,-0.5C 102.318,3.76584 103.984,8.09918 105.5,12.5C 110.511,12.3341 115.511,12.5007 120.5,13C 115.167,13.3333 109.833,13.6667 104.5,14C 110.552,14.7903 116.552,14.6236 122.5,13.5C 123.452,15.0453 123.785,16.712 123.5,18.5C 122.209,18.2627 121.209,18.596 120.5,19.5C 117.833,19.8333 117.833,20.1667 120.5,20.5C 118.183,22.7974 115.516,24.7974 112.5,26.5C 111.313,25.3473 110.313,25.3473 109.5,26.5C 108.957,26.56 108.624,26.8933 108.5,27.5C 109.028,29.3361 109.694,31.0028 110.5,32.5C 111.167,32.5 111.833,32.5 112.5,32.5C 113.603,35.3327 114.936,38.166 116.5,41C 115.629,42.3638 114.629,43.5305 113.5,44.5C 112.329,43.6554 110.995,42.9887 109.5,42.5C 108.739,41.6091 107.739,40.9424 106.5,40.5C 103.398,41.8934 102.398,41.06 103.5,38C 102.552,37.5172 101.552,37.3505 100.5,37.5C 100.167,36.1667 99.8333,36.1667 99.5,37.5C 97.2655,37.3801 95.0989,37.7135 93,38.5C 90.8106,40.5475 88.3106,41.8808 85.5,42.5C 85.44,41.9569 85.1067,41.6236 84.5,41.5C 83.2008,42.6937 81.8675,43.6937 80.5,44.5C 78.5613,43.9862 77.5613,42.6528 77.5,40.5C 78.5169,36.2781 80.0169,32.2781 82,28.5C 82.3333,29.5 82.6667,30.5 83,31.5C 83.3095,30.2341 83.8095,29.0674 84.5,28C 82.6992,27.6827 82.3659,27.016 83.5,26C 82.451,25.5078 81.451,25.6744 80.5,26.5C 77.6397,24.1397 74.6397,21.973 71.5,20C 71.8333,19.6667 72.1667,19.3333 72.5,19C 69.3302,17.8299 68.8302,15.9965 71,13.5C 77.0844,14.642 83.2511,14.8087 89.5,14C 84.1667,13.6667 78.8333,13.3333 73.5,13C 78.4889,12.5007 83.4889,12.3341 88.5,12.5C 88.8114,8.87523 89.978,5.5419 92,2.5C 92.3333,3.16667 92.6667,3.83333 93,4.5C 94.0086,2.97506 94.5086,1.30839 94.5,-0.5 Z"/></g>
<g><path style="opacity:0.004" fill="#00fffe" d="M 67.5,15.5 C 68.525,15.8966 68.6917,16.5632 68,17.5C 67.5357,16.9056 67.369,16.2389 67.5,15.5 Z"/></g>
<g><path style="opacity:0.004" fill="#00fffe" d="M 124.5,15.5 C 125.833,16.1667 125.833,16.1667 124.5,15.5 Z"/></g>
<g><path style="opacity:0.008" fill="#8080ff" d="M 120.5,19.5 C 121.833,20.1667 121.833,20.1667 120.5,19.5 Z"/></g>
<g><path style="opacity:0.012" fill="#55aaff" d="M 109.5,26.5 C 110.833,27.1667 110.833,27.1667 109.5,26.5 Z"/></g>
<g><path style="opacity:0.004" fill="#6699ff" d="M 112.5,32.5 C 111.833,32.5 111.167,32.5 110.5,32.5C 110.605,27.3402 111.272,27.3402 112.5,32.5 Z"/></g>
<g><path style="opacity:0.008" fill="#80fffe" d="M 99.5,37.5 C 99.8333,37.5 100.167,37.5 100.5,37.5C 100.315,38.1701 99.9813,38.1701 99.5,37.5 Z"/></g>
<g><path style="opacity:0.004" fill="#00fffe" d="M 85.5,42.5 C 85.631,43.2389 85.4643,43.9056 85,44.5C 84.3083,43.5632 84.475,42.8966 85.5,42.5 Z"/></g>
<g><path style="opacity:0.004" fill="#00fffe" d="M 109.5,42.5 C 109.361,44.337 108.694,44.6704 107.5,43.5C 107.957,42.7025 108.624,42.3691 109.5,42.5 Z"/></g>
<g><path style="opacity:0.008" fill="#6b5fff" d="M 80.5,44.5 C 81.2389,44.369 81.9056,44.5357 82.5,45C 81.5632,45.6917 80.8966,45.525 80.5,44.5 Z"/></g>
<g><path style="opacity:0.008" fill="#2f237b" d="M 113.5,44.5 C 112.749,45.5735 111.749,45.7401 110.5,45C 111.448,44.5172 112.448,44.3505 113.5,44.5 Z"/></g>
<g><path style="opacity:0.004" fill="#00fffe" d="M 34.5,46.5 C 35.6009,45.4017 36.9343,45.235 38.5,46C 37.2068,46.49 35.8734,46.6567 34.5,46.5 Z"/></g>
<g><path style="opacity:0.004" fill="#00fffe" d="M 154.5,46.5 C 155.946,45.3871 157.613,45.2204 159.5,46C 157.866,46.4935 156.199,46.6602 154.5,46.5 Z"/></g>
<g><path style="opacity:0.008" fill="#80fffe" d="M 41.5,46.5 C 41.5,47.1667 41.5,47.8333 41.5,48.5C 40.8333,48.5 40.1667,48.5 39.5,48.5C 39.5,47.1667 40.1667,46.5 41.5,46.5 Z"/></g>
<g><path style="opacity:0.004" fill="#646eff" d="M 41.5,46.5 C 43.6636,46.7215 45.3303,47.7215 46.5,49.5C 45.5,49.5 44.5,49.5 43.5,49.5C 43.1667,49.5 42.8333,49.5 42.5,49.5C 42.5,48.8333 42.1667,48.5 41.5,48.5C 41.5,47.8333 41.5,47.1667 41.5,46.5 Z"/></g>
<g><path style="opacity:0.008" fill="#76fffe" d="M 150.5,49.5 C 149.167,49.5 147.833,49.5 146.5,49.5C 147.997,48.3957 149.664,47.3957 151.5,46.5C 152.167,46.8333 152.833,47.1667 153.5,47.5C 152.398,48.1757 151.398,48.8423 150.5,49.5 Z"/></g>
<g><path style="opacity:0.004" fill="#7efffe" d="M 139.5,50.5 C 140.833,50.5 141.5,51.1667 141.5,52.5C 140.833,52.5 140.167,52.5 139.5,52.5C 139.5,51.8333 139.5,51.1667 139.5,50.5 Z"/></g>
<g><path style="opacity:0.008" fill="#709eff" d="M 59.5,53.5 C 58.1667,53.5 56.8333,53.5 55.5,53.5C 54.6016,52.8423 53.6016,52.1757 52.5,51.5C 53,51.1667 53.5,50.8333 54,50.5C 55.8582,51.6059 57.6915,52.6059 59.5,53.5 Z"/></g>
<g><path style="opacity:0.008" fill="#5848ff" d="M 139.5,50.5 C 139.5,51.1667 139.5,51.8333 139.5,52.5C 139.167,52.5 138.833,52.5 138.5,52.5C 137.833,52.5 137.167,52.5 136.5,52.5C 137.29,51.5987 138.29,50.9321 139.5,50.5 Z"/></g>
<g><path style="opacity:0.004" fill="#0000ff" d="M 131.5,53.5 C 131.715,55.1788 131.048,56.1788 129.5,56.5C 129.285,54.8212 129.952,53.8212 131.5,53.5 Z"/></g>
<g><path style="opacity:0.008" fill="#87dfff" d="M 67.5,56.5 C 66.448,56.6495 65.448,56.4828 64.5,56C 65.7494,55.2599 66.7494,55.4265 67.5,56.5 Z"/></g>
<g><path style="opacity:0.004" fill="#0000ff" d="M 6.5,57.5 C 5.83333,56.1667 5.83333,56.1667 6.5,57.5 Z"/></g>
<g><path style="opacity:0.004" fill="#0000ff" d="M 186.5,57.5 C 186.897,56.475 187.563,56.3083 188.5,57C 187.906,57.4643 187.239,57.631 186.5,57.5 Z"/></g>
<g><path style="opacity:0.004" fill="#e3ddff" d="M 186.5,57.5 C 186.5,58.1667 186.5,58.8333 186.5,59.5C 182.5,58.8333 182.5,58.1667 186.5,57.5 Z"/></g>
<g><path style="opacity:0.008" fill="#aca8be" d="M 6.5,57.5 C 10.5,58.1667 10.5,58.8333 6.5,59.5C 6.5,58.8333 6.5,58.1667 6.5,57.5 Z"/></g>
<g><path style="opacity:0.008" fill="#a59ede" d="M 113.5,60.5 C 114.251,59.4265 115.251,59.2599 116.5,60C 115.552,60.4828 114.552,60.6495 113.5,60.5 Z"/></g>
<g><path style="opacity:0.963" fill="#5ac4f6" d="M 39.5,48.5 C 40.209,49.404 41.209,49.7373 42.5,49.5C 42.8333,49.5 43.1667,49.5 43.5,49.5C 44.5,50.8333 45.5,50.8333 46.5,49.5C 49.5,50.8333 52.5,52.1667 55.5,53.5C 56.8333,54.8333 58.1667,54.8333 59.5,53.5C 60.9778,53.238 62.3112,53.5713 63.5,54.5C 62.3595,55.4255 62.3595,56.2588 63.5,57C 65.0657,57.765 66.3991,57.5983 67.5,56.5C 70.0588,56.3896 72.3921,57.0562 74.5,58.5C 73.9747,59.1924 73.3081,59.6924 72.5,60C 78.8752,58.8437 84.5419,60.3437 89.5,64.5C 89.3284,65.4916 89.6618,66.1583 90.5,66.5C 90.3284,67.4916 90.6618,68.1583 91.5,68.5C 92.1667,69.8333 93.1667,70.8333 94.5,71.5C 94.2627,72.791 94.596,73.791 95.5,74.5C 95.5,77.8333 95.5,81.1667 95.5,84.5C 93.7085,84.366 92.0418,84.6993 90.5,85.5C 90.5,85.1667 90.5,84.8333 90.5,84.5C 90.5,83.8333 90.1667,83.5 89.5,83.5C 89.1667,83.5 88.8333,83.5 88.5,83.5C 88.1667,83.5 87.8333,83.5 87.5,83.5C 85.7973,82.3398 85.1307,83.0065 85.5,85.5C 84.609,84.8902 83.609,84.5569 82.5,84.5C 82.1667,81.8333 81.8333,81.8333 81.5,84.5C 80.1829,120.694 80.1829,157.027 81.5,193.5C 80.1667,193.5 78.8333,193.5 77.5,193.5C 71.9871,191.33 66.3205,189.164 60.5,187C 61.8333,186.667 63.1667,186.333 64.5,186C 61.8832,185.178 59.2165,184.678 56.5,184.5C 56.6716,183.508 56.3382,182.842 55.5,182.5C 54.209,182.263 53.209,182.596 52.5,183.5C 49.119,183.573 46.119,182.573 43.5,180.5C 42.109,181.645 40.7757,181.645 39.5,180.5C 40.7287,179.719 42.062,179.219 43.5,179C 40.1986,177.502 36.8653,177.335 33.5,178.5C 32.8333,178.167 32.1667,177.833 31.5,177.5C 32.7287,176.719 34.062,176.219 35.5,176C 31.0291,174.761 26.5291,174.261 22,174.5C 20.1886,173.576 20.3553,172.743 22.5,172C 18.3701,173.012 14.3701,172.512 10.5,170.5C 11.0253,169.808 11.6919,169.308 12.5,169C 9.5571,168.058 6.72377,166.892 4,165.5C 3.50001,130.168 3.33335,94.8349 3.5,59.5C 4.5,59.5 5.5,59.5 6.5,59.5C 8.98146,60.2583 11.6481,60.2583 14.5,59.5C 15.0444,57.4205 15.8777,55.4205 17,53.5C 17.7247,52.9415 18.5581,52.6082 19.5,52.5C 20.369,53.3915 21.369,53.8915 22.5,54C 24.0368,52.8904 24.7035,51.3904 24.5,49.5C 26.1238,49.3601 27.2904,50.0267 28,51.5C 29,48.8333 30,48.8333 31,51.5C 32.9585,47.8067 35.7918,46.8067 39.5,48.5 Z M 23.5,63.5 C 25.0348,62.2121 26.7015,62.2121 28.5,63.5C 28.3764,64.1067 28.0431,64.44 27.5,64.5C 26.4324,63.5655 25.099,63.2322 23.5,63.5 Z M 36.5,66.5 C 37.8734,66.3433 39.2068,66.51 40.5,67C 41.6956,67.6543 41.6956,68.1543 40.5,68.5C 39.5832,67.8728 38.5832,67.5394 37.5,67.5C 36.8333,67.5 36.5,67.1667 36.5,66.5 Z M 52.5,73.5 C 52.1193,72.0689 51.1193,71.2355 49.5,71C 50.7932,70.51 52.1266,70.3433 53.5,70.5C 53.7373,71.791 53.404,72.791 52.5,73.5 Z M 64.5,77.5 C 64.369,76.7611 64.5357,76.0944 65,75.5C 71.0199,76.8808 70.8532,77.5474 64.5,77.5 Z M 77.5,81.5 C 77.369,80.7611 77.5357,80.0944 78,79.5C 84.0199,80.8808 83.8532,81.5474 77.5,81.5 Z"/></g>
<g><path style="opacity:0.972" fill="#5ac3f6" d="M 178.5,59.5 C 171.833,59.8333 171.833,60.1667 178.5,60.5C 181.244,61.4906 183.911,61.1573 186.5,59.5C 187.5,59.5 188.5,59.5 189.5,59.5C 189.667,94.8349 189.5,130.168 189,165.5C 188.005,166.066 187.172,166.733 186.5,167.5C 184.901,167.232 183.568,167.566 182.5,168.5C 181.167,168.833 181.167,169.167 182.5,169.5C 181.817,171.176 180.483,171.843 178.5,171.5C 177.167,170.167 175.833,170.167 174.5,171.5C 172.901,171.232 171.568,171.566 170.5,172.5C 167.833,173.167 167.833,173.833 170.5,174.5C 166.195,175.664 161.862,176.997 157.5,178.5C 156.167,177.167 154.833,177.167 153.5,178.5C 151.901,178.232 150.568,178.566 149.5,179.5C 148.167,179.833 148.167,180.167 149.5,180.5C 149.38,181.586 148.713,182.253 147.5,182.5C 143.889,183.812 140.223,184.812 136.5,185.5C 135.167,184.167 133.833,184.167 132.5,185.5C 128.5,185.833 128.5,186.167 132.5,186.5C 130.104,188.023 127.438,189.023 124.5,189.5C 123.167,188.167 121.833,188.167 120.5,189.5C 115.167,189.833 115.167,190.167 120.5,190.5C 119.167,191.5 117.833,192.5 116.5,193.5C 105.167,193.5 93.8333,193.5 82.5,193.5C 82.8077,157.142 82.4744,120.809 81.5,84.5C 81.8333,84.5 82.1667,84.5 82.5,84.5C 82.6107,85.1174 82.944,85.6174 83.5,86C 92.4938,86.4998 101.494,86.6664 110.5,86.5C 110.5,85.8333 110.5,85.1667 110.5,84.5C 107.728,85.7671 105.061,85.7671 102.5,84.5C 99.9591,85.1032 97.6257,85.1032 95.5,84.5C 96.8366,82.6505 97.5033,80.4839 97.5,78C 97.3917,76.3189 96.7251,75.1522 95.5,74.5C 95.5,73.5 95.5,72.5 95.5,71.5C 97.6237,70.9688 99.1237,69.6355 100,67.5C 100.324,69.5689 101.158,69.9023 102.5,68.5C 103.382,67.2402 104.382,66.0736 105.5,65C 104.833,64.6667 104.167,64.3333 103.5,64C 106.531,61.9852 109.864,60.8185 113.5,60.5C 113.917,61.1239 114.584,61.4573 115.5,61.5C 117.5,61 119.5,60.5 121.5,60C 120.376,59.7508 119.376,59.2508 118.5,58.5C 121.593,56.5211 124.926,55.6877 128.5,56C 127.5,56.3333 126.5,56.6667 125.5,57C 127.066,57.765 128.399,57.5983 129.5,56.5C 131.048,56.1788 131.715,55.1788 131.5,53.5C 133.216,53.3713 134.883,53.038 136.5,52.5C 137.167,52.5 137.833,52.5 138.5,52.5C 139.5,53.8333 140.5,53.8333 141.5,52.5C 142.404,51.791 142.737,50.791 142.5,49.5C 143.833,49.5 145.167,49.5 146.5,49.5C 147.833,50.8333 149.167,50.8333 150.5,49.5C 152.774,49.2849 154.941,48.6182 157,47.5C 159.96,48.4109 162.627,49.7442 165,51.5C 165.71,50.0267 166.876,49.3601 168.5,49.5C 168.5,50.5 168.5,51.5 168.5,52.5C 174.751,50.9428 178.084,53.2762 178.5,59.5 Z M 156.5,66.5 C 155.469,67.2485 154.302,67.9152 153,68.5C 152.833,68.1667 152.667,67.8333 152.5,67.5C 153.689,66.5713 155.022,66.238 156.5,66.5 Z M 128.5,77.5 C 122.147,77.5474 121.98,76.8808 128,75.5C 128.464,76.0944 128.631,76.7611 128.5,77.5 Z M 110.5,84.5 C 110.791,83.3509 111.624,82.6842 113,82.5C 113.833,82.6667 114.667,82.8333 115.5,83C 113.939,83.3176 112.772,84.1509 112,85.5C 111.617,84.944 111.117,84.6107 110.5,84.5 Z M 82.5,84.5 C 83.609,84.5569 84.609,84.8902 85.5,85.5C 87.1667,85.5 88.8333,85.5 90.5,85.5C 92.0418,84.6993 93.7085,84.366 95.5,84.5C 97.6257,85.1032 99.9591,85.1032 102.5,84.5C 105.061,85.7671 107.728,85.7671 110.5,84.5C 110.5,85.1667 110.5,85.8333 110.5,86.5C 101.494,86.6664 92.4938,86.4998 83.5,86C 82.944,85.6174 82.6107,85.1174 82.5,84.5 Z"/></g>
<g><path style="opacity:0.008" fill="#8080ff" d="M 178.5,60.5 C 178.5,60.1667 178.5,59.8333 178.5,59.5C 182.5,59.8333 182.5,60.1667 178.5,60.5 Z"/></g>
<g><path style="opacity:0.004" fill="#0000ff" d="M 89.5,64.5 C 91.4241,64.7107 91.7574,65.3774 90.5,66.5C 89.6618,66.1583 89.3284,65.4916 89.5,64.5 Z"/></g>
<g><path style="opacity:0.004" fill="#4735ff" d="M 35.5,66.5 C 35.8333,66.5 36.1667,66.5 36.5,66.5C 36.5,67.1667 36.8333,67.5 37.5,67.5C 37.6309,68.3764 37.2975,69.0431 36.5,69.5C 35.6143,68.675 35.281,67.675 35.5,66.5 Z"/></g>
<g><path style="opacity:0.012" fill="#6280ff" d="M 95.5,71.5 C 95.1667,71.5 94.8333,71.5 94.5,71.5C 93.1667,70.8333 92.1667,69.8333 91.5,68.5C 91.8966,67.475 92.5632,67.3083 93.5,68C 94.305,69.1127 94.9717,70.2794 95.5,71.5 Z"/></g>
<g><path style="opacity:0.016" fill="#547dff" d="M 87.5,83.5 C 87.8333,84.8333 88.1667,84.8333 88.5,83.5C 88.8333,83.5 89.1667,83.5 89.5,83.5C 90.1667,83.5 90.5,83.8333 90.5,84.5C 90.5,84.8333 90.5,85.1667 90.5,85.5C 88.8333,85.5 87.1667,85.5 85.5,85.5C 85.1307,83.0065 85.7973,82.3398 87.5,83.5 Z"/></g>
<g><path style="opacity:0.004" fill="#000000" d="M 186.5,167.5 C 187.239,167.369 187.906,167.536 188.5,168C 187.563,168.692 186.897,168.525 186.5,167.5 Z"/></g>
<g><path style="opacity:0.006" fill="#40fffe" d="M 182.5,169.5 C 182.5,169.167 182.5,168.833 182.5,168.5C 186.5,168.833 186.5,169.167 182.5,169.5 Z"/></g>
<g><path style="opacity:0.008" fill="#8afffe" d="M 174.5,171.5 C 175.833,171.5 177.167,171.5 178.5,171.5C 177.167,172.833 175.833,172.833 174.5,171.5 Z"/></g>
<g><path style="opacity:0.004" fill="#7efffe" d="M 170.5,172.5 C 173.167,173.167 173.167,173.833 170.5,174.5C 170.5,173.833 170.5,173.167 170.5,172.5 Z"/></g>
<g><path style="opacity:0.012" fill="#53bacb" d="M 153.5,179.5 C 153.5,179.167 153.5,178.833 153.5,178.5C 154.833,178.5 156.167,178.5 157.5,178.5C 156.432,179.434 155.099,179.768 153.5,179.5 Z"/></g>
<g><path style="opacity:0.012" fill="#73d8ff" d="M 149.5,180.5 C 149.5,180.167 149.5,179.833 149.5,179.5C 150.833,179.5 152.167,179.5 153.5,179.5C 152.597,181.62 151.263,181.954 149.5,180.5 Z"/></g>
<g><path style="opacity:0.008" fill="#7676ff" d="M 55.5,182.5 C 56.3382,182.842 56.6716,183.508 56.5,184.5C 56.0831,185.124 55.4164,185.457 54.5,185.5C 53.2867,185.253 52.62,184.586 52.5,183.5C 53.791,183.737 54.791,183.404 55.5,182.5 Z"/></g>
<g><path style="opacity:0.004" fill="#00fffe" d="M 132.5,186.5 C 132.5,186.167 132.5,185.833 132.5,185.5C 133.833,185.5 135.167,185.5 136.5,185.5C 135.432,186.434 134.099,186.768 132.5,186.5 Z"/></g>
<g><path style="opacity:0.004" fill="#00fffe" d="M 120.5,190.5 C 120.5,190.167 120.5,189.833 120.5,189.5C 121.833,189.5 123.167,189.5 124.5,189.5C 123.432,190.434 122.099,190.768 120.5,190.5 Z"/></g>
</svg>
